HIERARCHY
ROOT hip
{
	OFFSET 0.000000 0.000000 0.000000
	CHANNELS 6 Xposition Yposition Zposition Xrotation Zrotation Yrotation 
	JOINT abdomen
	{
		OFFSET 0.000000 3.422050 0.000000
		CHANNELS 3 Xrotation Zrotation Yrotation 
		JOINT chest
		{
			OFFSET 0.000000 8.486693 -0.684411
			CHANNELS 3 Xrotation Zrotation Yrotation 
			JOINT neck
			{
				OFFSET 0.000000 10.266162 -0.273764
				CHANNELS 3 Xrotation Zrotation Yrotation 
				JOINT head
				{
					OFFSET 0.000000 3.148285 0.000000
					CHANNELS 3 Xrotation Zrotation Yrotation 
					End Site
					{
						OFFSET 0.000000 3.148289 0.000000
					}
				}
			}
			JOINT lCollar
			{
				OFFSET 3.422053 6.707223 -0.821293
				CHANNELS 3 Yrotation Zrotation Xrotation 
				JOINT lShldr
				{
					OFFSET 3.285171 0.000000 0.000000
					CHANNELS 3 Zrotation Yrotation Xrotation 
					JOINT lForeArm
					{
						OFFSET 10.129278 0.000000 0.000000
						CHANNELS 3 Yrotation Zrotation Xrotation 
						JOINT lHand
						{
							OFFSET 8.486692 0.000000 0.000000
							CHANNELS 3 Zrotation Yrotation Xrotation 
							End Site
							{
								OFFSET 4.106464 0.000000 0.000000
							}
						}
					}
				}
			}
			JOINT rCollar
			{
				OFFSET -3.558935 6.707223 -0.821293
				CHANNELS 3 Yrotation Zrotation Xrotation 
				JOINT rShldr
				{
					OFFSET -3.148289 0.000000 0.000000
					CHANNELS 3 Zrotation Yrotation Xrotation 
					JOINT rForeArm
					{
						OFFSET -10.266159 0.000000 0.000000
						CHANNELS 3 Yrotation Zrotation Xrotation 
						JOINT rHand
						{
							OFFSET -8.349810 0.000000 0.000000
							CHANNELS 3 Zrotation Yrotation Xrotation 
							End Site
							{
								OFFSET -4.106464 0.000000 0.000000
							}
						}
					}
				}
			}
		}
	}
	JOINT lThigh
	{
		OFFSET 5.338403 -1.642589 1.368821
		CHANNELS 3 Xrotation Zrotation Yrotation 
		JOINT lShin
		{
			OFFSET -2.053232 -20.121670 0.000000
			CHANNELS 3 Xrotation Zrotation Yrotation 
			JOINT lFoot
			{
				OFFSET 0.000000 -19.300380 -1.231939
				CHANNELS 3 Xrotation Yrotation Zrotation 
				End Site
				{
					OFFSET 0.000000 -2.463878 4.653993
				}
			}
		}
	}
	JOINT rThigh
	{
		OFFSET -5.338403 -1.642589 1.368821
		CHANNELS 3 Xrotation Zrotation Yrotation 
		JOINT rShin
		{
			OFFSET 2.053232 -20.121670 0.000000
			CHANNELS 3 Xrotation Zrotation Yrotation 
			JOINT rFoot
			{
				OFFSET 0.000000 -19.300380 -1.231939
				CHANNELS 3 Xrotation Yrotation Zrotation 
				End Site
				{
					OFFSET 0.000000 -2.463878 4.653993
				}
			}
		}
	}
}
MOTION
Frames: 20
Frame Time: 0.066667
0.000000 43.528500 0.000000 0.000000 0.000000 0.000000 0.000000 0.000000 0.000000 0.000000 0.000000 0.000000 0.000000 0.000000 0.000000 0.000000 0.000000 0.000000 0.000000 0.000000 0.000000 0.000000 0.000000 0.000000 0.000000 0.000000 0.000000 0.000000 0.000000 0.000000 0.000000 0.000000 0.000000 0.000000 0.000000 0.000000 0.000000 0.000000 0.000000 0.000000 0.000000 0.000000 0.000000 0.000000 0.000000 0.000000 0.000000 0.000000 0.000000 0.000000 0.000000 0.000000 0.000000 0.000000 0.000000 0.000000 0.000000 0.000000 0.000000 0.000000 
-0.309380 41.404850 1.054315 0.000000 0.000000 0.000000 2.695356 -0.530654 -0.119170 26.800613 -0.688586 -0.708700 -0.400421 0.000000 0.000000 -0.267537 0.000000 0.000000 9.996550 -20.000458 -6.003497 -63.007637 -51.002285 30.003567 -29.300661 -1.594087 -26.081894 -7.000325 0.000000 0.000000 4.195101 8.040597 -0.840483 79.555450 28.385365 43.341370 29.296305 1.591622 -26.080914 6.996825 0.000000 0.000000 -1.003285 16.999350 10.997438 -0.003502 2.999194 -1.002368 19.997419 5.997977 -15.001153 -0.002569 -4.001805 -9.000473 0.000000 2.999106 0.000000 6.997695 -6.000587 13.999791 
-0.309380 41.404850 1.141851 -0.357103 0.000000 0.000000 3.501561 -0.492118 -0.114158 25.603575 -0.646700 -0.651827 -0.800409 0.000000 0.000000 -0.267537 0.000000 0.000000 9.326911 -20.661608 -6.224164 -61.973442 -49.305115 29.748814 -28.988255 -1.495747 -25.643951 -7.000325 0.000000 0.000000 4.317500 8.480939 0.147484 79.149773 28.332306 43.140163 30.479355 1.420165 -25.665779 5.012856 0.015958 -0.069825 -0.574787 17.006016 11.140110 0.139644 2.784886 -0.998868 19.355200 5.921700 -15.067181 0.853390 -4.008650 -9.071586 -0.499953 2.999006 -0.000217 6.997695 -6.000587 13.999791 
-0.309380 41.404850 1.229387 -0.714248 0.000000 0.000000 4.308244 -0.453634 -0.108602 24.405010 -0.603578 -0.595769 -1.200455 0.000000 0.000000 -0.267537 0.000000 0.000000 8.651059 -21.320782 -6.454266 -60.981239 -47.599625 29.547318 -28.676537 -1.394999 -25.206450 -7.000325 0.000000 0.000000 4.432462 8.923801 1.136769 78.744461 28.277990 42.939461 31.665293 1.257079 -25.246584 3.021605 0.029535 -0.140419 -0.146192 17.011658 11.282856 0.282760 2.570558 -0.995905 18.712725 5.846133 -15.134079 1.709935 -4.014437 -9.142838 -1.000020 2.998903 -0.000433 6.997695 -6.000586 13.999791 
-0.309380 41.404850 1.316923 -1.071427 0.000000 0.000000 5.115332 -0.415212 -0.102501 23.205179 -0.559243 -0.540565 -1.600551 0.000000 0.000000 -0.267537 0.000000 0.000000 7.968838 -21.977787 -6.693944 -60.025978 -45.887341 29.394197 -28.365549 -1.291850 -24.769432 -7.000325 0.000000 0.000000 4.539896 9.368972 2.127311 78.339539 28.222422 42.739288 32.853825 1.102519 -24.823601 1.024243 0.040680 -0.211660 0.282482 17.016279 11.425663 0.425849 2.356211 -0.993478 18.070042 5.771294 -15.201841 2.566970 -4.019164 -9.214211 -1.500182 2.998799 -0.000649 6.997695 -6.000587 13.999791 
-0.309380 41.404850 1.404460 -1.428634 0.000000 0.000000 5.922741 -0.376865 -0.095856 22.004337 -0.513721 -0.486254 -2.000684 0.000000 0.000000 -0.267537 0.000000 0.000000 7.280084 -22.632410 -6.943338 -59.103218 -44.169712 29.285204 -28.055307 -1.186319 -24.332914 -7.000325 0.000000 0.000000 4.639720 9.816251 3.119051 77.935020 28.165600 42.539654 34.044590 0.956625 -24.397093 -0.978034 0.049354 -0.283423 0.711221 17.019886 11.568521 0.568915 2.141850 -0.991587 17.427181 5.697196 -15.270452 3.424397 -4.022827 -9.285676 -2.000420 2.998693 -0.000864 6.997695 -6.000587 13.999791 
-0.309380 41.404850 1.491996 -1.785862 0.000000 0.000000 6.730392 -0.338605 -0.088670 20.802755 -0.467040 -0.432875 -2.400849 0.000000 0.000000 -0.267537 0.000000 0.000000 6.584630 -23.284443 -7.202586 -58.209148 -42.448189 29.216667 -27.745852 -1.078413 -23.896935 -7.000325 0.000000 0.000000 4.731848 10.265417 4.111928 77.530907 28.107536 42.340565 35.237267 0.819530 -23.967342 -2.984013 0.055524 -0.355577 1.140008 17.022465 11.711416 0.711958 1.927480 -0.990231 16.784189 5.623855 -15.339900 4.282119 -4.025424 -9.357217 -2.500715 2.998585 -0.001077 6.997694 -6.000586 13.999789 
-0.309380 41.404850 1.579532 -2.143104 0.000000 0.000000 7.538204 -0.300441 -0.080944 19.600695 -0.419228 -0.380464 -2.801032 0.000000 0.000000 -0.267537 0.000000 0.000000 5.882319 -23.933689 -7.471835 -57.340355 -40.724159 29.185364 -27.437206 -0.968147 -23.461519 -7.000325 0.000000 0.000000 4.816206 10.716257 5.105886 77.127243 28.048239 42.142059 36.431492 0.691350 -23.534620 -4.992469 0.059168 -0.427993 1.568827 17.024019 11.854336 0.854982 1.713102 -0.989411 16.141104 5.551282 -15.410169 5.140036 -4.026952 -9.428803 -3.001049 2.998474 -0.001290 6.997694 -6.000586 13.999790 
-0.309380 41.404850 1.667068 -2.500352 0.000000 0.000000 8.346100 -0.262386 -0.072679 18.398420 -0.370317 -0.329057 -3.201225 0.000000 0.000000 -0.267537 0.000000 0.000000 5.172982 -24.579924 -7.751225 -56.493858 -38.998997 29.188482 -27.129402 -0.855537 -23.026695 -7.000325 0.000000 0.000000 4.892719 11.168550 6.100867 76.724037 27.987703 41.944134 37.626915 0.572191 -23.099226 -7.002163 0.060271 -0.500536 1.997662 17.024553 11.997270 0.997990 1.498720 -0.989127 15.497959 5.479495 -15.481245 5.998051 -4.027410 -9.500412 -3.501401 2.998363 -0.001502 6.997695 -6.000587 13.999791 
-0.309380 41.404850 1.754604 -2.857601 0.000000 0.000000 9.153999 -0.224452 -0.063879 17.196194 -0.320338 -0.278687 -3.601418 0.000000 0.000000 -0.267537 0.000000 0.000000 4.456456 -25.222940 -8.040899 -55.667038 -37.274063 29.223562 -26.822477 -0.740595 -22.592503 -7.000325 0.000000 0.000000 4.961329 11.622087 7.096821 76.321289 27.925941 41.746807 38.823200 0.462144 -22.661446 -9.011859 0.058830 -0.573074 2.426497 17.024063 12.140202 1.140983 1.284339 -0.989377 14.854806 5.408507 -15.553124 6.856068 -4.026799 -9.572021 -4.001755 2.998250 -0.001712 6.997695 -6.000587 13.999792 
-0.309380 41.404850 1.842141 -3.214843 0.000000 0.000000 9.961824 -0.186650 -0.054545 15.994287 -0.269325 -0.229388 -4.001601 0.000000 0.000000 -0.267537 0.000000 0.000000 3.732577 -25.862528 -8.341002 -54.857513 -35.550667 29.288404 -26.516451 -0.623338 -22.158958 -7.000325 0.000000 0.000000 5.021967 12.076634 8.093685 75.919029 27.862959 41.550095 40.019978 0.361287 -22.221584 -11.020310 0.054849 -0.645472 2.855316 17.022552 12.283126 1.283965 1.069961 -0.990163 14.211685 5.338332 -15.625783 7.713983 -4.025118 -9.643602 -4.502088 2.998134 -0.001922 6.997696 -6.000587 13.999793 
-0.309380 41.404850 1.929677 -3.572071 0.000000 0.000000 10.769490 -0.148990 -0.044682 14.792957 -0.217311 -0.181192 -4.401765 0.000000 0.000000 -0.267537 0.000000 0.000000 3.001178 -26.498451 -8.651675 -54.063202 -33.830093 29.381086 -26.211351 -0.503782 -21.726091 -7.000325 0.000000 0.000000 5.074582 12.531977 9.091413 75.517265 27.798765 41.354012 41.216873 0.269686 -21.779934 -13.026290 0.048343 -0.717597 3.284104 17.020021 12.426022 1.426938 0.855589 -0.991484 13.568630 5.268982 -15.699212 8.571705 -4.022370 -9.715137 -5.002383 2.998017 -0.002131 6.997695 -6.000587 13.999791 
-0.309380 41.404850 2.017213 -3.929278 0.000000 0.000000 11.576921 -0.111484 -0.034292 13.592473 -0.164335 -0.134127 -4.801899 0.000000 0.000000 -0.267537 0.000000 0.000000 2.262097 -27.130507 -8.973062 -53.282242 -32.113632 29.499912 -25.907219 -0.381942 -21.293936 -7.000325 0.000000 0.000000 5.119125 12.987887 10.089948 75.116028 27.733358 41.158573 42.413544 0.187390 -21.336807 -15.028566 0.039335 -0.789318 3.712843 17.016466 12.568879 1.569905 0.641229 -0.993340 12.925680 5.200469 -15.773388 9.429130 -4.018555 -9.786595 -5.502620 2.997897 -0.002339 6.997695 -6.000587 13.999791 
-0.309380 41.404850 2.104749 -4.286458 0.000000 0.000000 12.384033 -0.074143 -0.023379 12.393088 -0.110432 -0.088223 -5.201994 0.000000 0.000000 -0.267537 0.000000 0.000000 1.515171 -27.758478 -9.305305 -52.512939 -30.402517 29.643356 -25.604063 -0.257835 -20.862516 -7.000325 0.000000 0.000000 5.155551 13.444150 11.089242 74.715309 27.666750 40.963787 43.609612 0.114438 -20.892500 -17.025927 0.027858 -0.860506 4.141519 17.011887 12.711688 1.712867 0.426882 -0.995730 12.282884 5.132809 -15.848311 10.286162 -4.013676 -9.857957 -6.002783 2.997777 -0.002545 6.997695 -6.000587 13.999790 
-0.309380 41.404850 2.192286 -4.643602 0.000000 0.000000 13.190754 -0.036978 -0.011947 11.195070 -0.055640 -0.043505 -5.602041 0.000000 0.000000 -0.267537 0.000000 0.000000 0.760235 -28.382126 -9.648542 -51.753780 -28.697962 29.810068 -25.301916 -0.131480 -20.431854 -7.000325 0.000000 0.000000 5.183823 13.900530 12.089236 74.315132 27.598946 40.769672 44.804703 0.050850 -20.447325 -19.017174 0.013953 -0.931036 4.570115 17.006289 12.854438 1.855829 0.212553 -0.998655 11.640278 5.066011 -15.923958 11.142708 -4.007737 -9.929199 -6.502850 2.997654 -0.002751 6.997695 -6.000586 13.999791 
-0.309380 41.404850 2.279822 -5.000705 0.000000 0.000000 13.997003 0.000000 0.000000 9.998674 0.000000 0.000000 -6.002029 0.000000 0.000000 -0.267537 0.000000 0.000000 -0.002869 -29.001236 -10.002913 -51.003403 -27.001150 29.998844 -25.000813 -0.002894 -20.001978 -7.000325 0.000000 0.000000 5.203907 14.356812 13.089887 73.915512 27.529942 40.576233 45.998478 -0.003360 -20.001595 -21.001141 -0.002330 -1.000787 4.998614 16.999668 12.997110 1.998792 -0.001756 -1.002115 10.997906 5.000091 -16.000317 11.998664 -4.000740 -10.000295 -7.002801 2.997530 -0.002955 6.997695 -6.000587 13.999791 
-0.309380 41.404850 2.192286 -4.643602 0.000000 0.000000 13.190754 -0.036978 -0.011947 11.195069 -0.055640 -0.043505 -5.602042 0.000000 0.000000 -0.267537 0.000000 0.000000 0.760235 -28.382126 -9.648541 -51.753777 -28.697962 29.810068 -25.301916 -0.131481 -20.431852 -7.000325 0.000000 0.000000 5.183824 13.900532 12.089238 74.315132 27.598942 40.769669 44.804707 0.050851 -20.447327 -19.017174 0.013953 -0.931037 4.570114 17.006287 12.854437 1.855829 0.212553 -0.998655 11.640277 5.066011 -15.923956 11.142708 -4.007737 -9.929199 -6.502849 2.997654 -0.002751 6.997695 -6.000587 13.999791 
-0.309380 41.404850 2.104749 -4.286458 0.000000 0.000000 12.384034 -0.074143 -0.023379 12.393088 -0.110432 -0.088223 -5.201994 0.000000 0.000000 -0.267537 0.000000 0.000000 1.515170 -27.758472 -9.305303 -52.512939 -30.402517 29.643356 -25.604065 -0.257836 -20.862516 -7.000325 0.000000 0.000000 5.155551 13.444150 11.089242 74.715294 27.666748 40.963783 43.609615 0.114438 -20.892502 -17.025927 0.027858 -0.860506 4.141519 17.011887 12.711689 1.712867 0.426882 -0.995730 12.282884 5.132810 -15.848311 10.286162 -4.013676 -9.857957 -6.002782 2.997776 -0.002545 6.997695 -6.000587 13.999791 
-0.309380 41.404850 2.017213 -3.929278 0.000000 0.000000 11.576921 -0.111484 -0.034292 13.592473 -0.164335 -0.134127 -4.801899 0.000000 0.000000 -0.267537 0.000000 0.000000 2.262098 -27.130512 -8.973063 -53.282238 -32.113632 29.499908 -25.907219 -0.381942 -21.293936 -7.000325 0.000000 0.000000 5.119124 12.987886 10.089947 75.116020 27.733358 41.158573 42.413544 0.187390 -21.336807 -15.028566 0.039335 -0.789318 3.712843 17.016466 12.568879 1.569905 0.641229 -0.993340 12.925680 5.200469 -15.773388 9.429130 -4.018555 -9.786594 -5.502621 2.997897 -0.002339 6.997695 -6.000587 13.999791 
-0.309380 41.404850 1.929677 -3.572071 0.000000 0.000000 10.769489 -0.148990 -0.044682 14.792957 -0.217311 -0.181192 -4.401764 0.000000 0.000000 -0.267537 0.000000 0.000000 3.001179 -26.498453 -8.651676 -54.063206 -33.830097 29.381090 -26.211353 -0.503782 -21.726093 -7.000325 0.000000 0.000000 5.074582 12.531977 9.091413 75.517273 27.798765 41.354012 41.216881 0.269685 -21.779936 -13.026290 0.048343 -0.717597 3.284104 17.020021 12.426022 1.426938 0.855589 -0.991484 13.568630 5.268982 -15.699212 8.571703 -4.022369 -9.715135 -5.002383 2.998017 -0.002131 6.997695 -6.000587 13.999791 
